G04 MADE WITH FRITZING*
G04 WWW.FRITZING.ORG*
G04 DOUBLE SIDED*
G04 HOLES PLATED*
G04 CONTOUR ON CENTER OF CONTOUR VECTOR*
%ASAXBY*%
%FSLAX23Y23*%
%MOIN*%
%OFA0B0*%
%SFA1.0B1.0*%
%ADD10C,0.074000*%
%ADD11C,0.073889*%
%ADD12C,0.066194*%
%ADD13C,0.066222*%
%ADD14C,0.078000*%
%ADD15R,0.078000X0.078000*%
%ADD16C,0.024000*%
%LNCOPPER0*%
G90*
G70*
G54D10*
X2321Y385D03*
X2421Y385D03*
X2521Y385D03*
G54D11*
X2221Y1186D03*
X2221Y1285D03*
X2221Y1385D03*
X2221Y1485D03*
G54D12*
X2114Y90D03*
X2214Y90D03*
X2314Y90D03*
X2414Y90D03*
X2514Y90D03*
G54D13*
X1654Y1990D03*
X1554Y1990D03*
X1454Y1990D03*
X1354Y1990D03*
X1254Y1990D03*
X1154Y1990D03*
X1054Y1990D03*
X954Y1990D03*
X854Y1990D03*
X754Y1990D03*
X2514Y1990D03*
X2414Y1990D03*
X2314Y1990D03*
X2214Y1990D03*
X2114Y1990D03*
X2014Y1990D03*
X1914Y1990D03*
X1814Y1990D03*
G54D12*
X1214Y90D03*
X1114Y90D03*
X1314Y90D03*
X1414Y90D03*
X1514Y90D03*
X1614Y90D03*
X1714Y90D03*
X1814Y90D03*
X2014Y90D03*
G54D14*
X821Y885D03*
X821Y985D03*
X821Y1085D03*
G54D15*
X821Y885D03*
G54D16*
X2522Y1786D02*
X2521Y417D01*
D02*
X2315Y1960D02*
X2323Y1786D01*
D02*
X2323Y1786D02*
X2522Y1786D01*
D02*
X2214Y1960D02*
X2221Y1520D01*
D02*
X2422Y1385D02*
X2255Y1385D01*
D02*
X2421Y417D02*
X2422Y1385D01*
D02*
X1521Y1087D02*
X851Y1086D01*
D02*
X1553Y1960D02*
X1521Y1087D01*
D02*
X1614Y120D02*
X1621Y885D01*
D02*
X1621Y885D02*
X851Y885D01*
G04 End of Copper0*
M02*