G04 MADE WITH FRITZING*
G04 WWW.FRITZING.ORG*
G04 DOUBLE SIDED*
G04 HOLES PLATED*
G04 CONTOUR ON CENTER OF CONTOUR VECTOR*
%ASAXBY*%
%FSLAX23Y23*%
%MOIN*%
%OFA0B0*%
%SFA1.0B1.0*%
%ADD10C,0.066194*%
%ADD11C,0.066222*%
%ADD12C,0.075000*%
%ADD13C,0.074972*%
%ADD14R,0.075000X0.075014*%
%ADD15R,0.075014X0.075000*%
%ADD16C,0.024000*%
%LNCOPPER0*%
G90*
G70*
G54D10*
X2103Y111D03*
X2203Y111D03*
X2303Y111D03*
X2403Y111D03*
X2503Y111D03*
G54D11*
X1643Y2011D03*
X1543Y2011D03*
X1443Y2011D03*
X1343Y2011D03*
X1243Y2011D03*
X1143Y2011D03*
X1043Y2011D03*
X943Y2011D03*
X843Y2011D03*
X743Y2011D03*
X2503Y2011D03*
X2403Y2011D03*
X2303Y2011D03*
X2203Y2011D03*
X2103Y2011D03*
X2003Y2011D03*
X1903Y2011D03*
X1803Y2011D03*
G54D10*
X1203Y111D03*
X1103Y111D03*
X1303Y111D03*
X1403Y111D03*
X1503Y111D03*
X1603Y111D03*
X1703Y111D03*
X1803Y111D03*
X2003Y111D03*
G54D12*
X819Y237D03*
X919Y237D03*
X819Y237D03*
X919Y237D03*
G54D13*
X612Y1337D03*
G54D12*
X612Y1237D03*
X612Y1137D03*
X612Y637D03*
G54D13*
X612Y1037D03*
G54D12*
X612Y537D03*
X612Y937D03*
X612Y437D03*
X612Y837D03*
X612Y337D03*
X612Y737D03*
X612Y237D03*
X612Y1737D03*
X612Y1637D03*
G54D13*
X612Y1537D03*
G54D12*
X612Y1437D03*
X612Y1737D03*
X612Y1637D03*
G54D13*
X612Y1537D03*
G54D12*
X612Y1437D03*
G54D13*
X612Y1337D03*
G54D12*
X612Y1237D03*
X612Y1137D03*
X612Y637D03*
G54D13*
X612Y1037D03*
G54D12*
X612Y537D03*
X612Y937D03*
X612Y437D03*
X612Y837D03*
X612Y337D03*
X612Y737D03*
X612Y237D03*
X812Y1737D03*
X912Y1737D03*
X1012Y1737D03*
X1112Y1737D03*
X812Y1737D03*
X912Y1737D03*
X1012Y1737D03*
X1112Y1737D03*
G54D14*
X612Y1737D03*
X612Y1737D03*
G54D15*
X812Y1737D03*
X812Y1737D03*
G54D16*
X848Y237D02*
X891Y237D01*
D02*
X1023Y1988D02*
X830Y1759D01*
D02*
X1493Y140D02*
X1326Y670D01*
D02*
X1326Y670D02*
X922Y1710D01*
D02*
X2403Y142D02*
X2411Y861D01*
D02*
X1302Y993D02*
X1022Y1710D01*
D02*
X2411Y861D02*
X2403Y977D01*
D02*
X2403Y977D02*
X1302Y993D01*
D02*
X2552Y728D02*
X2560Y1738D01*
D02*
X2505Y142D02*
X2552Y728D01*
D02*
X2560Y1738D02*
X1141Y1737D01*
G04 End of Copper0*
M02*