; NON-PLATED HOLES START AT T1
; THROUGH (PLATED) HOLES START AT T100
M48
INCH
T100C0.038417
T101C0.035000
T102C0.034972
T103C0.038445
%
T100
X020025Y001114
X018025Y001114
X011025Y001114
X012025Y001114
X013025Y001114
X021025Y001114
X022025Y001114
X023025Y001114
X014025Y001114
X015025Y001114
X024025Y001114
X025025Y001114
X016025Y001114
X017025Y001114
T101
X006119Y017367
X006119Y014367
X006119Y007367
X006119Y011367
X009193Y002367
X006119Y004367
X008193Y002367
X006119Y016367
X006119Y009367
X008119Y017367
X011119Y017367
X006119Y006367
X010119Y017367
X006119Y003367
X006119Y008367
X006119Y012367
X006119Y005367
X009119Y017367
X006119Y002367
T102
X006119Y010367
X006119Y015367
X006119Y013367
T103
X019025Y020114
X013425Y020114
X014425Y020114
X021025Y020114
X015425Y020114
X022025Y020114
X023025Y020114
X007425Y020114
X016425Y020114
X024025Y020114
X010425Y020114
X025025Y020114
X008425Y020114
X009425Y020114
X011425Y020114
X012425Y020114
X020025Y020114
X018025Y020114
T00
M30
