; NON-PLATED HOLES START AT T1
; THROUGH (PLATED) HOLES START AT T100
M48
INCH
T100C0.040000
T101C0.046111
T102C0.038417
T103C0.038000
T104C0.038445
%
T100
X024212Y003854
X023212Y003854
X025212Y003854
T101
X022212Y013854
X022212Y011855
X022212Y014854
X022212Y012854
T102
X016135Y000900
X025135Y000900
X017135Y000900
X018135Y000900
X011135Y000900
X012135Y000900
X020135Y000900
X021135Y000900
X022135Y000900
X013135Y000900
X014135Y000900
X023135Y000900
X024135Y000900
X015135Y000900
T103
X008212Y008854
X008212Y009854
X008212Y010854
T104
X022135Y019900
X015535Y019900
X016535Y019900
X023135Y019900
X024135Y019900
X007535Y019900
X008535Y019900
X010535Y019900
X025135Y019900
X011535Y019900
X009535Y019900
X018135Y019900
X019135Y019900
X012535Y019900
X013535Y019900
X020135Y019900
X014535Y019900
X021135Y019900
T00
M30
