G04 MADE WITH FRITZING*
G04 WWW.FRITZING.ORG*
G04 DOUBLE SIDED*
G04 HOLES PLATED*
G04 CONTOUR ON CENTER OF CONTOUR VECTOR*
%ASAXBY*%
%FSLAX23Y23*%
%MOIN*%
%OFA0B0*%
%SFA1.0B1.0*%
%ADD10C,0.074000*%
%ADD11C,0.073889*%
%ADD12C,0.078000*%
%ADD13C,0.066194*%
%ADD14C,0.066222*%
%ADD15R,0.078000X0.078000*%
%ADD16C,0.024000*%
%LNCOPPER1*%
G90*
G70*
G54D10*
X2321Y385D03*
X2421Y385D03*
X2521Y385D03*
G54D11*
X2221Y1186D03*
X2221Y1285D03*
X2221Y1385D03*
X2221Y1485D03*
G54D12*
X821Y885D03*
X821Y985D03*
X821Y1085D03*
G54D13*
X2114Y90D03*
X2214Y90D03*
X2314Y90D03*
X2414Y90D03*
X2514Y90D03*
G54D14*
X1654Y1990D03*
X1554Y1990D03*
X1454Y1990D03*
X1354Y1990D03*
X1254Y1990D03*
X1154Y1990D03*
X1054Y1990D03*
X954Y1990D03*
X854Y1990D03*
X754Y1990D03*
X2514Y1990D03*
X2414Y1990D03*
X2314Y1990D03*
X2214Y1990D03*
X2114Y1990D03*
X2014Y1990D03*
X1914Y1990D03*
X1814Y1990D03*
G54D13*
X1214Y90D03*
X1114Y90D03*
X1314Y90D03*
X1414Y90D03*
X1514Y90D03*
X1614Y90D03*
X1714Y90D03*
X1814Y90D03*
X2014Y90D03*
G54D15*
X821Y885D03*
G54D16*
X1922Y1786D02*
X2121Y1786D01*
D02*
X2121Y1786D02*
X2115Y1960D01*
D02*
X1921Y704D02*
X1922Y1786D01*
D02*
X1921Y637D02*
X1922Y1187D01*
D02*
X1922Y1187D02*
X2187Y1186D01*
D02*
X1921Y600D02*
X1922Y385D01*
D02*
X1922Y385D02*
X2290Y385D01*
D02*
X1720Y587D02*
X1714Y120D01*
D02*
X1922Y587D02*
X1720Y587D01*
D02*
X1922Y600D02*
X1922Y587D01*
D02*
X620Y984D02*
X791Y985D01*
D02*
X1521Y686D02*
X823Y686D01*
D02*
X1514Y120D02*
X1521Y686D01*
D02*
X620Y686D02*
X620Y984D01*
D02*
X823Y686D02*
X620Y686D01*
G36*
X1943Y662D02*
X1900Y662D01*
X1900Y709D01*
X1943Y709D01*
X1943Y662D01*
G37*
D02*
G36*
X1943Y595D02*
X1900Y595D01*
X1900Y642D01*
X1943Y642D01*
X1943Y595D01*
G37*
D02*
G04 End of Copper1*
M02*