G04 MADE WITH FRITZING*
G04 WWW.FRITZING.ORG*
G04 DOUBLE SIDED*
G04 HOLES PLATED*
G04 CONTOUR ON CENTER OF CONTOUR VECTOR*
%ASAXBY*%
%FSLAX23Y23*%
%MOIN*%
%OFA0B0*%
%SFA1.0B1.0*%
%ADD10C,0.076194*%
%ADD11C,0.076222*%
%ADD12C,0.085000*%
%ADD13C,0.084972*%
%ADD14R,0.085000X0.085014*%
%ADD15R,0.085014X0.085000*%
%LNMASK0*%
G90*
G70*
G54D10*
X2103Y111D03*
X2203Y111D03*
X2303Y111D03*
X2403Y111D03*
X2503Y111D03*
G54D11*
X1643Y2011D03*
X1543Y2011D03*
X1443Y2011D03*
X1343Y2011D03*
X1243Y2011D03*
X1143Y2011D03*
X1043Y2011D03*
X943Y2011D03*
X843Y2011D03*
X743Y2011D03*
X2503Y2011D03*
X2403Y2011D03*
X2303Y2011D03*
X2203Y2011D03*
X2103Y2011D03*
X2003Y2011D03*
X1903Y2011D03*
X1803Y2011D03*
G54D10*
X1203Y111D03*
X1103Y111D03*
X1303Y111D03*
X1403Y111D03*
X1503Y111D03*
X1603Y111D03*
X1703Y111D03*
X1803Y111D03*
X2003Y111D03*
G54D12*
X819Y237D03*
X919Y237D03*
X819Y237D03*
X919Y237D03*
G54D13*
X612Y1337D03*
G54D12*
X612Y1237D03*
X612Y1137D03*
X612Y637D03*
G54D13*
X612Y1037D03*
G54D12*
X612Y537D03*
X612Y937D03*
X612Y437D03*
X612Y837D03*
X612Y337D03*
X612Y737D03*
X612Y237D03*
X612Y1737D03*
X612Y1637D03*
G54D13*
X612Y1537D03*
G54D12*
X612Y1437D03*
X612Y1737D03*
X612Y1637D03*
G54D13*
X612Y1537D03*
G54D12*
X612Y1437D03*
G54D13*
X612Y1337D03*
G54D12*
X612Y1237D03*
X612Y1137D03*
X612Y637D03*
G54D13*
X612Y1037D03*
G54D12*
X612Y537D03*
X612Y937D03*
X612Y437D03*
X612Y837D03*
X612Y337D03*
X612Y737D03*
X612Y237D03*
X812Y1737D03*
X912Y1737D03*
X1012Y1737D03*
X1112Y1737D03*
X812Y1737D03*
X912Y1737D03*
X1012Y1737D03*
X1112Y1737D03*
G54D14*
X612Y1737D03*
X612Y1737D03*
G54D15*
X812Y1737D03*
X812Y1737D03*
G04 End of Mask0*
M02*