G04 MADE WITH FRITZING*
G04 WWW.FRITZING.ORG*
G04 DOUBLE SIDED*
G04 HOLES PLATED*
G04 CONTOUR ON CENTER OF CONTOUR VECTOR*
%ASAXBY*%
%FSLAX23Y23*%
%MOIN*%
%OFA0B0*%
%SFA1.0B1.0*%
%ADD10C,0.076000*%
%ADD11C,0.071889*%
%ADD12C,0.071917*%
%ADD13C,0.024000*%
%LNCOPPER0*%
G90*
G70*
G54D10*
X1344Y730D03*
X1544Y730D03*
X1444Y830D03*
X1444Y630D03*
G54D11*
X344Y2030D03*
X444Y2030D03*
X544Y2030D03*
X644Y2030D03*
G54D12*
X744Y2030D03*
G54D11*
X844Y2030D03*
X944Y2030D03*
X1044Y2030D03*
X1144Y2030D03*
G54D12*
X1244Y2030D03*
G54D11*
X1344Y2030D03*
G54D12*
X1444Y2030D03*
G54D11*
X1544Y2030D03*
X1644Y2030D03*
X1744Y2030D03*
X1844Y2030D03*
G54D12*
X1944Y2030D03*
G54D11*
X2044Y2030D03*
X2144Y2030D03*
X2244Y2030D03*
X2244Y2130D03*
X2144Y2130D03*
X2044Y2130D03*
G54D12*
X1944Y2130D03*
G54D11*
X1844Y2130D03*
X1744Y2130D03*
X1644Y2130D03*
X1544Y2130D03*
G54D12*
X1444Y2130D03*
G54D11*
X1344Y2130D03*
G54D12*
X1244Y2130D03*
G54D11*
X1144Y2130D03*
X1044Y2130D03*
X944Y2130D03*
X844Y2130D03*
G54D12*
X744Y2130D03*
G54D11*
X644Y2130D03*
X544Y2130D03*
X444Y2130D03*
X344Y2130D03*
G54D13*
X841Y1027D02*
X1443Y1027D01*
D02*
X844Y1997D02*
X841Y1027D01*
D02*
X1443Y1027D02*
X1444Y663D01*
D02*
X1544Y1997D02*
X1543Y1528D01*
D02*
X1944Y1528D02*
X1944Y733D01*
D02*
X1543Y1528D02*
X1944Y1528D01*
D02*
X1944Y733D02*
X1577Y730D01*
D02*
X444Y2097D02*
X447Y733D01*
D02*
X447Y733D02*
X1312Y730D01*
G04 End of Copper0*
M02*