; NON-PLATED HOLES START AT T1
; THROUGH (PLATED) HOLES START AT T100
M48
INCH
T100C0.044111
T101C0.043307
T102C0.044139
%
T100
X003444Y021301
X018444Y021301
X021444Y021301
X013444Y020301
X009444Y020301
X015444Y021301
X010444Y020301
X006444Y020301
X008444Y021301
X011444Y021301
X003444Y020301
X018444Y020301
X005444Y021301
X021444Y020301
X004444Y021301
X015444Y020301
X022444Y021301
X017444Y021301
X020444Y021301
X016444Y021301
X008444Y020301
X011444Y020301
X013444Y021301
X009444Y021301
X005444Y020301
X004444Y020301
X010444Y021301
X006444Y021301
X022444Y020301
X017444Y020301
X020444Y020301
X016444Y020301
T101
X014444Y006301
X015444Y007301
X013444Y007301
X014444Y008301
T102
X019444Y021301
X014444Y020301
X007444Y021301
X012444Y020301
X014444Y021301
X019444Y020301
X012444Y021301
X007444Y020301
T00
M30
